<?xml version="1.0" encoding="utf-8"?>
<!-- Generator: Adobe Illustrator 17.0.0, SVG Export Plug-In . SVG Version: 6.00 Build 0)  -->
<!DOCTYPE svg PUBLIC "-//W3C//DTD SVG 1.1//EN" "http://www.w3.org/Graphics/SVG/1.1/DTD/svg11.dtd">
<svg version="1.1" id="Ebene_1" xmlns="http://www.w3.org/2000/svg" xmlns:xlink="http://www.w3.org/1999/xlink" x="0px" y="0px"
	 width="1133.858px" height="1133.858px" viewBox="0 0 1133.858 1133.858" enable-background="new 0 0 1133.858 1133.858"
	 xml:space="preserve">
<rect fill="#FFD700" width="1133.858" height="1133.858"/>
<g>
	<path fill="#FFFFFF" d="M841.101,500.068c0-2.033-0.871-6.097-6.968-9.001l-56.326-28.454l-8.129,19.453l41.228,19.163
		l-60.101,25.55l-10.162,24.098l88.844-38.905C836.745,509.068,840.81,504.423,841.101,500.068z"/>
	<path fill="#FFFFFF" d="M924.138,500.068c0-2.033-0.871-6.097-6.968-9.001l-56.326-28.454l-8.13,19.453l41.228,19.163
		l-60.391,25.55l-10.162,24.098l89.424-38.905C919.782,509.068,923.848,504.423,924.138,500.068z"/>
</g>
<g>
	<path d="M1000.207,490.778l-56.035-28.163l-8.13,19.453l41.228,19.163l-60.101,25.55l-10.162,24.098l88.844-38.905
		c6.968-3.194,11.324-7.549,11.324-11.904C1007.175,497.746,1006.304,493.971,1000.207,490.778z"/>
	<polygon points="229.934,506.456 194.514,506.456 146.316,538.393 166.931,487.003 143.123,487.003 101.895,588.622 
		125.993,588.622 136.155,563.653 142.543,559.007 168.673,588.622 202.353,588.622 161.996,547.975 	"/>
	<path d="M317.908,512.262c-2.613-3.775-7.549-5.806-15.097-5.806h-64.456l-7.549,18.581h63.294l-5.226,13.065h-41.228
		c-21.775,0-28.744,16.549-28.744,16.84l-6.387,15.969c0,0.29-2.904,6.678,0.581,11.904c2.613,3.775,7.839,5.806,15.388,5.806
		h64.165l25.84-64.455C318.779,523.876,321.392,517.488,317.908,512.262z M276.099,570.04h-39.196l5.226-13.065h39.196
		L276.099,570.04z"/>
	<path d="M421.85,512.262c-2.613-3.775-7.549-5.806-15.097-5.806h-64.455l-40.939,101.619h24.098l7.839-19.453h41.228
		c0.871,0,22.065-0.29,28.744-16.84l19.163-47.615C422.721,523.876,425.333,517.488,421.85,512.262z M380.041,570.04h-39.196
		l18.001-44.713h39.196L380.041,570.04z"/>
	<path d="M492.692,538.103h-40.067l5.226-13.065h54.874l7.549-18.582h-57.197c-0.871,0-22.065,0.29-28.744,16.84l-6.387,15.969
		c0,0.29-2.613,6.678,0.871,11.904c2.613,3.775,7.549,5.806,15.097,5.806h40.067l-5.226,13.065h-60.391l-7.549,18.582h62.714
		c21.775,0,28.744-16.549,28.744-16.84l6.387-15.969c1.742-4.645,1.742-8.42-0.29-11.324
		C504.016,538.393,492.983,538.103,492.692,538.103z"/>
	<path d="M698.544,506.456h-40.067l7.839-19.453h-24.388L600.99,588.622h24.098l25.55-63.584h39.196l-25.55,63.584h24.098
		l25.84-64.165c0-0.29,2.904-6.678-0.581-11.904C711.028,508.488,706.093,506.456,698.544,506.456z"/>
	<path d="M555.697,525.037h57.778l7.549-18.582h-59.81c-0.871,0-22.065,0.29-28.744,16.84l-19.163,47.615
		c0,0.29-2.613,6.678,0.871,11.904c2.613,3.775,7.549,5.806,15.097,5.806h58.939l7.258-18.582h-58.067L555.697,525.037z"/>
	<g>
		<path d="M416.333,629.85c0-3.484-1.742-4.645-5.226-4.645c-5.806,0-7.839,7.258-7.839,11.904c0,3.484,1.452,6.097,5.516,6.097
			c3.485,0,5.516-2.613,6.387-5.226h7.839c-2.323,6.968-7.258,11.033-14.807,11.033c-7.839,0-12.774-3.775-12.774-12.195
			c0-9.581,5.806-17.711,15.969-17.711c6.968,0,12.485,3.194,12.774,10.743h-7.839V629.85z"/>
		<path d="M434.044,608.945h7.839l-2.904,14.226l0,0c1.161-1.742,4.355-4.065,9.291-4.065c5.516,0,8.42,2.613,8.42,7.549
			c0,1.161-0.581,3.775-0.871,4.935l-3.485,16.549h-7.839l3.485-16.549c0.29-0.871,0.581-2.613,0.581-3.484
			c0-1.742-2.033-2.904-3.775-2.904c-4.645,0-7.258,4.065-7.839,7.839l-3.194,15.097h-7.839L434.044,608.945z"/>
		<path d="M464.24,628.398c0.871-7.258,6.968-9.291,13.355-9.291c4.935,0,11.904,1.161,11.904,7.549c0,1.161-0.29,2.904-0.581,4.645
			l-2.613,11.324c-0.29,0.871-0.29,2.613-0.29,3.775c0,0.581,0,1.161,0.29,1.742h-7.839v-2.904c-2.033,2.323-5.516,3.484-8.71,3.484
			c-6.097,0-9.291-3.484-9.291-7.549c0-5.516,4.065-8.71,10.743-9.581c7.258-0.871,10.743-0.581,10.743-4.065
			c0-2.904-2.904-3.485-4.935-3.485c-2.904,0-5.226,1.452-5.806,4.065h-6.968v0.29H464.24z M480.789,634.786
			c-2.033,1.161-4.355,1.161-6.678,1.452c-2.904,0.29-5.806,1.162-5.806,4.645c0,2.033,2.033,3.194,4.355,3.194
			c4.935,0,6.387-3.484,7.258-6.387L480.789,634.786z"/>
		<path d="M501.403,608.945h7.839l-8.42,39.486h-7.839L501.403,608.945z"/>
		<path d="M516.79,608.945h7.839l-8.42,39.486h-7.839L516.79,608.945z"/>
		<path d="M532.469,635.947c0,0.581,0,1.161,0,1.742c0,3.194,2.033,5.516,6.387,5.516c3.194,0,4.645-2.033,5.806-3.775h7.839
			c-2.613,6.387-6.678,9.872-14.807,9.872c-7.549,0-12.774-4.355-12.774-12.484c0-9.001,6.097-17.421,15.678-17.421
			c7.839,0,13.355,4.065,13.355,12.485c0,1.452-0.29,3.194-0.581,4.355h-20.905v-0.29H532.469z M546.115,631.012
			c0-2.904-0.581-6.097-5.226-6.097c-4.355,0-6.678,2.904-7.839,6.097H546.115z"/>
		<path d="M562.374,619.978h7.549l-0.871,4.065l0,0c2.613-3.194,5.806-4.645,9.872-4.645c5.516,0,8.42,2.613,8.42,7.549
			c0,1.162-0.581,3.775-0.871,4.935l-3.485,16.549h-7.839l3.485-16.549c0.29-0.871,0.581-2.613,0.581-3.485
			c0-1.742-2.033-2.904-3.775-2.904c-4.645,0-7.258,4.065-7.839,7.839l-3.194,15.097h-7.839L562.374,619.978z"/>
		<path d="M618.409,646.69c-2.033,8.71-6.387,12.195-15.678,12.195c-5.806,0-12.195-2.613-12.195-9.291h7.839
			c0,2.904,2.613,4.065,5.226,4.065c4.935,0,6.387-4.355,7.839-9.872l0,0c-2.033,2.613-4.645,4.065-7.839,4.065
			c-6.678,0-11.033-4.645-11.033-11.614c0-8.42,5.226-17.13,14.226-17.13c3.775,0,6.968,1.452,8.71,5.226l0,0l0.871-4.356h7.549
			L618.409,646.69z M600.408,635.657c0,3.484,1.742,6.387,5.226,6.387c5.516,0,8.42-6.097,8.42-10.743
			c0-3.484-1.742-6.097-5.516-6.097C603.022,624.915,600.408,631.302,600.408,635.657z"/>
		<path d="M631.766,619.978h7.839l-6.097,28.454h-7.839L631.766,619.978z M640.476,615.624h-7.839l1.452-6.387h7.839
			L640.476,615.624z"/>
		<path d="M646.863,619.978h7.549l-0.871,4.065l0,0c2.613-3.194,5.806-4.645,9.872-4.645c5.516,0,8.42,2.613,8.42,7.549
			c0,1.162-0.581,3.775-0.871,4.935l-3.485,16.549h-7.839l3.485-16.549c0.29-0.871,0.581-2.613,0.581-3.485
			c0-1.742-2.033-2.904-3.775-2.904c-4.645,0-7.258,4.065-7.839,7.839l-3.194,15.097h-7.839L646.863,619.978z"/>
		<path d="M703.189,646.69c-2.033,8.71-6.387,12.195-15.678,12.195c-5.806,0-12.195-2.613-12.195-9.291h7.839
			c0,2.904,2.613,4.065,5.226,4.065c4.935,0,6.387-4.355,7.839-9.872l0,0c-2.033,2.613-4.645,4.065-7.839,4.065
			c-6.678,0-11.033-4.645-11.033-11.614c0-8.42,5.226-17.13,14.226-17.13c3.775,0,6.968,1.452,8.71,5.226l0,0l0.871-4.356h7.549
			L703.189,646.69z M684.897,635.657c0,3.484,1.742,6.387,5.226,6.387c5.516,0,8.42-6.097,8.42-10.743
			c0-3.484-1.742-6.097-5.516-6.097C687.801,624.915,684.897,631.302,684.897,635.657z"/>
		<path d="M735.126,608.945h7.839l-8.42,39.486h-7.839L735.126,608.945z"/>
		<path d="M747.902,619.978h7.839l-6.097,28.454h-7.839L747.902,619.978z M756.902,615.624h-7.839l1.452-6.387h7.839
			L756.902,615.624z"/>
		<path d="M763.289,619.978h7.549l-0.871,4.065l0,0c2.323-3.194,5.806-4.645,9.872-4.645c3.484,0,6.097,1.452,6.968,4.935
			c2.033-2.904,6.097-4.935,9.581-4.935c4.355,0,8.71,2.323,8.71,7.258c0,1.742-0.581,3.485-0.871,5.226l-3.485,16.84h-7.839
			l3.775-18.001c0-0.871,0.29-1.452,0.29-2.033c0-1.742-1.452-2.904-3.484-2.904c-4.065,0-6.678,4.355-7.258,7.839l-3.194,15.097
			h-7.839l3.775-18.001c0-0.871,0.29-1.452,0.29-2.033c0-1.742-1.452-2.904-3.485-2.904c-4.065,0-6.678,4.355-7.258,7.839
			l-3.194,15.097h-7.839L763.289,619.978z"/>
		<path d="M814.389,619.978h7.839l-6.097,28.454h-7.839L814.389,619.978z M823.1,615.624h-7.839l1.452-6.387h7.839L823.1,615.624z"
			/>
		<path d="M839.359,619.978h5.516l-1.161,5.226h-5.516l-2.904,14.226c0,0.581-0.29,1.161-0.29,1.452
			c0,2.033,1.452,2.033,2.613,2.033c0.871,0,1.742,0,2.904-0.29l-1.162,5.806c-1.452,0.29-3.194,0.29-4.935,0.29
			c-3.485,0-7.549-1.161-7.549-5.806c0-0.581,0.29-1.742,0.29-2.613l3.485-15.097h-5.226l1.162-5.226h4.935l1.742-8.71h7.839
			L839.359,619.978z"/>
		<path d="M864.909,628.108c0-2.323-1.452-3.775-4.356-3.775c-2.613,0-4.645,0.871-4.645,2.904c0,1.161,0.871,2.033,3.485,2.904
			l3.775,1.161c4.065,1.452,7.549,3.484,7.549,8.129c0,6.968-6.968,9.581-13.646,9.581c-5.516,0-12.195-2.323-12.195-8.71v-1.161
			h7.258v0.871c0,2.613,2.904,3.775,5.516,3.775c2.323,0,4.935-0.871,4.935-3.484c0-2.033-1.162-2.613-2.904-3.194l-6.097-2.033
			c-3.775-1.161-6.097-2.904-6.097-7.258c0-6.678,6.968-9.001,12.484-9.001c6.097,0,11.614,1.742,11.614,9.001h-6.678
			L864.909,628.108L864.909,628.108z"/>
	</g>
</g>
</svg>
